# xmcd
#
# Track frame offsets: 
#        150
#        25317
#        37385
#
# Disc length: 653 seconds
#
# Revision: 0
# Processed by: cddbd v1.5.2PL0 Copyright (c) Steve Scherf et al.
# Submitted via: ExactAudioCopy v0.95a5
#
DISCID=24028b03
DTITLE=Y'All - Christmastime in the Trailerpark
DYEAR=1995
DGENRE=Country
TTITLE0=Christmastime in the Trailerpark
TTITLE1=Christmas in Indiana
TTITLE2=Okey Dokey Christmas
EXTD=
EXTT0=
EXTT1=
EXTT2=
PLAYORDER=
